<?xml version="1.0" encoding="UTF-8" standalone="no"?>
<svg
   xmlns:dc="http://purl.org/dc/elements/1.1/"
   xmlns:cc="http://creativecommons.org/ns#"
   xmlns:rdf="http://www.w3.org/1999/02/22-rdf-syntax-ns#"
   xmlns:svg="http://www.w3.org/2000/svg"
   xmlns="http://www.w3.org/2000/svg"
   xmlns:sodipodi="http://sodipodi.sourceforge.net/DTD/sodipodi-0.dtd"
   xmlns:inkscape="http://www.inkscape.org/namespaces/inkscape"
   viewBox="0 0 126 125.99999"
   version="1.1"
   id="svg3795"
   sodipodi:docname="borderlesslogo.svg"
   inkscape:version="0.92.4 (5da689c313, 2019-01-14)"
   width="126"
   height="126"
   inkscape:export-filename="D:\HTML\uploadclaimphoto\public\borderlesslogo192.png"
   inkscape:export-xdpi="146.28999"
   inkscape:export-ydpi="146.28999">
  <metadata
     id="metadata3799">
    <rdf:RDF>
      <cc:Work
         rdf:about="">
        <dc:format>image/svg+xml</dc:format>
        <dc:type
           rdf:resource="http://purl.org/dc/dcmitype/StillImage" />
        <dc:title></dc:title>
      </cc:Work>
    </rdf:RDF>
  </metadata>
  <sodipodi:namedview
     pagecolor="#ffffff"
     bordercolor="#666666"
     borderopacity="1"
     objecttolerance="10"
     gridtolerance="10"
     guidetolerance="10"
     inkscape:pageopacity="0"
     inkscape:pageshadow="2"
     inkscape:window-width="1920"
     inkscape:window-height="1017"
     id="namedview3797"
     showgrid="false"
     inkscape:zoom="2.9255783"
     inkscape:cx="51.829107"
     inkscape:cy="17.498157"
     inkscape:window-x="-8"
     inkscape:window-y="-8"
     inkscape:window-maximized="1"
     inkscape:current-layer="a16d813b-fb7c-4dd9-8bf6-d72665bbb136"
     fit-margin-top="0"
     fit-margin-left="0"
     fit-margin-right="0"
     fit-margin-bottom="0" />
  <defs
     id="defs3759">
    <style
       id="style3757">.e41e30d8-2d90-413f-aac8-35d9b8987e07{fill:#18baa8;}.aa22f1b3-ab18-4cc6-a2ba-1c0349a513be{fill:#2a2163;}</style>
  </defs>
  <g
     id="a79e320d-cb3a-45b1-b658-6c339cf7bde7"
     data-name="Layer 2"
     transform="translate(-30.79,49.329886)">
    <g
       id="a16d813b-fb7c-4dd9-8bf6-d72665bbb136"
       data-name="Main Content">
      <path
         class="e41e30d8-2d90-413f-aac8-35d9b8987e07"
         d="m 45.165,0.60005754 a 1.18,1.18 0 0 0 -1.19,1.17999996 v 5.35 a 1.19,1.19 0 0 0 1.19,1.19 h 26.26 a 1.19,1.19 0 0 1 1.19,1.19 v 8.3200005 a 1.19,1.19 0 0 1 -1.19,1.18 h -26.26 a 1.19,1.19 0 0 0 -1.19,1.23 v 5.29 a 1.19,1.19 0 0 0 1.19,1.19 h 29.58 a 1.19,1.19 0 0 1 1.19,1.19 v 8.33 a 1.19,1.19 0 0 1 -1.19,1.19 h -42.63 a 1.19,1.19 0 0 1 -1.21,-1.19 V -8.9099425 a 1.19,1.19 0 0 1 1.21,-1.1899995 h 42.63 a 1.19,1.19 0 0 1 1.19,1.1899995 v 8.32000004 a 1.19,1.19 0 0 1 -1.19,1.19 z"
         id="path3761"
         style="fill:#7dbaaf;fill-opacity:1"
         inkscape:connector-curvature="0" />
      <path
         class="e41e30d8-2d90-413f-aac8-35d9b8987e07"
         d="m 85.795,37.430058 a 1.51,1.51 0 0 1 -1.49,-1.48 V -8.6099425 a 1.56,1.56 0 0 1 1.49,-1.4899995 h 10.16 a 1.49,1.49 0 0 1 1.42,1.4899995 V 35.950058 a 1.45,1.45 0 0 1 -1.42,1.48 z"
         id="path3763"
         style="fill:#7dbaaf;fill-opacity:1"
         inkscape:connector-curvature="0" />
      <path
         class="e41e30d8-2d90-413f-aac8-35d9b8987e07"
         d="m 155.485,11.240058 a 1.19,1.19 0 0 1 1.19,1.19 v 23.75 a 1.19,1.19 0 0 1 -1.19,1.19 h -6.48 a 1.14,1.14 0 0 1 -1.13,-1.19 v -1.48 a 0.74,0.74 0 0 0 -1.13,-0.66 28.76,28.76 0 0 1 -14.49,3.87 c -14.86,0 -26.8,-10.94 -26.8,-24.24 0,-13.55000046 12.18,-24.24 26.8,-24.24 9.38,0 17.7,4.3299995 22.46,10.99999954 a 1.18,1.18 0 0 1 -0.3,1.71999996 l -7.61,4.87 a 1.18,1.18 0 0 1 -1.6,-0.24 16.31,16.31 0 0 0 -13,-5.93999996 c -8.38,0 -15.39,5.70999996 -15.39,12.84000046 0,7.36 7.31,12.83 15.39,12.83 a 16.47,16.47 0 0 0 12.41,-5.27 0.7,0.7 0 0 0 -0.48,-1.19 h -13.25 a 1.19,1.19 0 0 1 -1.19,-1.19 v -6.44 a 1.19,1.19 0 0 1 1.19,-1.18 z"
         id="path3765"
         style="fill:#7dbaaf;fill-opacity:1"
         inkscape:connector-curvature="0" />
    </g>
  </g>
</svg>
