<?xml version="1.0" encoding="UTF-8" standalone="no"?>
<svg
   xmlns:dc="http://purl.org/dc/elements/1.1/"
   xmlns:cc="http://creativecommons.org/ns#"
   xmlns:rdf="http://www.w3.org/1999/02/22-rdf-syntax-ns#"
   xmlns:svg="http://www.w3.org/2000/svg"
   xmlns="http://www.w3.org/2000/svg"
   id="logo"
   version="1.1"
   viewBox="0 0 186.67 102.48">
  <g
     data-name="Layer 2"
     id="a79e320d-cb3a-45b1-b658-6c339cf7bde7">
    <g
       data-name="Main Content"
       id="a16d813b-fb7c-4dd9-8bf6-d72665bbb136">
      <path
         style="fill:#ffffff;fill-opacity:1"
         id="acE"
         d="M45.05,39.36a1.18,1.18,0,0,0-1.19,1.18v5.35a1.19,1.19,0,0,0,1.19,1.19H71.31a1.19,1.19,0,0,1,1.19,1.19v8.32a1.19,1.19,0,0,1-1.19,1.18H45.05A1.19,1.19,0,0,0,43.86,59v5.29a1.19,1.19,0,0,0,1.19,1.19H74.63a1.19,1.19,0,0,1,1.19,1.19V75a1.19,1.19,0,0,1-1.19,1.19H32A1.19,1.19,0,0,1,30.79,75V29.85A1.19,1.19,0,0,1,32,28.66H74.63a1.19,1.19,0,0,1,1.19,1.19v8.32a1.19,1.19,0,0,1-1.19,1.19Z"
         class="e41e30d8-2d90-413f-aac8-35d9b8987e07" />
      <path
         style="fill:#ffffff;fill-opacity:1"
         id="acI"
         d="M85.68,76.19a1.51,1.51,0,0,1-1.49-1.48V30.15a1.56,1.56,0,0,1,1.49-1.49H95.84a1.49,1.49,0,0,1,1.42,1.49V74.71a1.45,1.45,0,0,1-1.42,1.48Z"
         class="e41e30d8-2d90-413f-aac8-35d9b8987e07" />
      <path
         style="fill:#ffffff;fill-opacity:1"
         id="acG"
         d="M155.37,50a1.19,1.19,0,0,1,1.19,1.19V74.94a1.19,1.19,0,0,1-1.19,1.19h-6.48a1.14,1.14,0,0,1-1.13-1.19V73.46a.74.74,0,0,0-1.13-.66,28.76,28.76,0,0,1-14.49,3.87c-14.86,0-26.8-10.94-26.8-24.24,0-13.55,12.18-24.24,26.8-24.24,9.38,0,17.7,4.33,22.46,11a1.18,1.18,0,0,1-.3,1.72l-7.61,4.87a1.18,1.18,0,0,1-1.6-.24,16.31,16.31,0,0,0-13-5.94c-8.38,0-15.39,5.71-15.39,12.84,0,7.36,7.31,12.83,15.39,12.83A16.47,16.47,0,0,0,144.5,60a.7.7,0,0,0-.48-1.19H130.77a1.19,1.19,0,0,1-1.19-1.19V51.18A1.19,1.19,0,0,1,130.77,50Z"
         class="e41e30d8-2d90-413f-aac8-35d9b8987e07" />
      <polygon
         style="fill:#ffffff;fill-opacity:1"
         id="outerBorder"
         points="170.86 102.48 0 102.48 0 15.8 12.56 15.8 12.56 18.3 2.5 18.3 2.5 99.99 168.37 99.99 168.37 18.3 21.55 18.3 21.55 15.8 170.86 15.8 170.86 102.48"
         class="aa22f1b3-ab18-4cc6-a2ba-1c0349a513be" />
      <polygon
         style="fill:#ffffff;fill-opacity:1"
         id="innerBorder"
         points="186.67 86.68 174.11 86.68 174.11 84.18 184.17 84.18 184.17 2.5 18.3 2.5 18.3 84.18 165.12 84.18 165.12 86.68 15.8 86.68 15.8 0 186.67 0 186.67 86.68"
         class="aa22f1b3-ab18-4cc6-a2ba-1c0349a513be" />
    </g>
  </g>
</svg>
